<svg xmlns="http://www.w3.org/2000/svg" width="1200" height="630" viewBox="0 0 1200 630" role="img" aria-labelledby="title desc">
  <title id="title">Below Market Apartments</title>
  <desc id="desc">A branded Below Market Apartments social preview image for shared links.</desc>
  <defs>
    <linearGradient id="bg" x1="0" y1="0" x2="1" y2="1">
      <stop offset="0" stop-color="#f6f8ef"/>
      <stop offset="0.54" stop-color="#e6f1eb"/>
      <stop offset="1" stop-color="#173f3f"/>
    </linearGradient>
    <linearGradient id="gold" x1="0" y1="0" x2="1" y2="1">
      <stop offset="0" stop-color="#ffe29b"/>
      <stop offset="1" stop-color="#d99b22"/>
    </linearGradient>
    <filter id="soft-shadow" x="-20%" y="-20%" width="140%" height="140%">
      <feDropShadow dx="0" dy="18" stdDeviation="18" flood-color="#102426" flood-opacity="0.18"/>
    </filter>
  </defs>
  <rect width="1200" height="630" fill="url(#bg)"/>
  <path d="M0 512 C175 440 310 487 480 420 C680 340 805 214 1200 255 L1200 630 L0 630 Z" fill="#173f3f" opacity="0.95"/>
  <path d="M810 0 L1200 0 L1200 335 C1085 280 1004 204 938 122 C898 72 858 32 810 0 Z" fill="#f2b84b" opacity="0.32"/>
  <g filter="url(#soft-shadow)">
    <rect x="84" y="82" width="1032" height="466" rx="28" fill="#fffdf5" opacity="0.96"/>
    <rect x="84" y="82" width="1032" height="466" rx="28" fill="none" stroke="#d7e6df" stroke-width="3"/>
  </g>
  <g transform="translate(136 132)">
    <rect x="0" y="0" width="96" height="96" rx="24" fill="#173f3f"/>
    <path d="M24 56 L48 31 L72 56 V74 H56 V58 H40 V74 H24 Z" fill="url(#gold)"/>
    <path d="M28 78 H68" stroke="#fff8e6" stroke-width="6" stroke-linecap="round"/>
  </g>
  <text x="136" y="292" fill="#102426" font-family="Inter, Arial, sans-serif" font-size="72" font-weight="800" letter-spacing="0">
    Below Market Apartments
  </text>
  <text x="140" y="362" fill="#173f3f" font-family="Inter, Arial, sans-serif" font-size="34" font-weight="600">
    Verified specials. Effective rent. Better apartment deals.
  </text>
  <g transform="translate(140 424)">
    <rect x="0" y="0" width="300" height="62" rx="31" fill="#173f3f"/>
    <text x="150" y="40" text-anchor="middle" fill="#fff8e6" font-family="Inter, Arial, sans-serif" font-size="24" font-weight="700">
      belowmarketapartments.com
    </text>
  </g>
  <g transform="translate(790 390)">
    <rect x="0" y="0" width="248" height="96" rx="20" fill="#fff8e6" stroke="#f2d08a" stroke-width="3"/>
    <text x="28" y="40" fill="#8a5b0a" font-family="Inter, Arial, sans-serif" font-size="22" font-weight="800">
      Renter-first
    </text>
    <text x="28" y="72" fill="#173f3f" font-family="Inter, Arial, sans-serif" font-size="22" font-weight="700">
      deal transparency
    </text>
  </g>
</svg>
