<svg xmlns="http://www.w3.org/2000/svg" width="1200" height="1200" viewBox="0 0 1200 1200" role="img" aria-labelledby="title desc">
  <title id="title">Below Market Apartments</title>
  <desc id="desc">Below Market Apartments social preview image with the BMA logo and apartment deal tagline.</desc>
  <defs>
    <filter id="soft-shadow" x="-20%" y="-20%" width="140%" height="140%">
      <feDropShadow dx="0" dy="20" stdDeviation="16" flood-color="#102426" flood-opacity="0.18"/>
    </filter>
  </defs>
  <rect width="1200" height="1200" fill="#f5f8f1"/>
  <g transform="translate(0 285)">
    <rect width="1200" height="630" fill="#f5f8f1"/>
    <rect width="1200" height="630" fill="#e7f3ee" opacity="0.56"/>
    <path d="M0 486 C168 424 322 456 500 382 C718 292 858 196 1200 236 L1200 630 L0 630 Z" fill="#173f3f"/>
    <path d="M864 0 H1200 V250 C1084 212 998 146 920 64 C898 40 879 18 864 0 Z" fill="#f2b84b" opacity="0.42"/>
    <path d="M948 92 C1016 132 1082 160 1154 176" fill="none" stroke="#fff8e6" stroke-width="9" stroke-linecap="round" opacity="0.5"/>

    <g filter="url(#soft-shadow)">
      <rect x="110" y="78" width="980" height="474" rx="26" fill="#fffdf5"/>
      <rect x="110" y="78" width="980" height="474" rx="26" fill="none" stroke="#d7e6df" stroke-width="3"/>
    </g>

    <g transform="translate(156 142)">
      <rect x="0" y="0" width="130" height="130" rx="24" fill="#173f3f"/>
      <text x="65" y="84" fill="#f2b84b" font-family="Arial, Helvetica, sans-serif" font-size="58" font-weight="900" text-anchor="middle" letter-spacing="-2">
        BMA
      </text>
    </g>

    <text x="318" y="176" fill="#102426" font-family="Arial, Helvetica, sans-serif" font-size="52" font-weight="900" letter-spacing="0">
      Below Market
    </text>
    <text x="318" y="236" fill="#102426" font-family="Arial, Helvetica, sans-serif" font-size="52" font-weight="900" letter-spacing="0">
      Apartments
    </text>

    <text x="156" y="356" fill="#173f3f" font-family="Arial, Helvetica, sans-serif" font-size="34" font-weight="800" letter-spacing="0">
      Find the best apartment deals near you.
    </text>

    <g transform="translate(156 412)">
      <rect x="0" y="0" width="354" height="58" rx="29" fill="#173f3f"/>
      <text x="177" y="37" text-anchor="middle" fill="#fff8e6" font-family="Arial, Helvetica, sans-serif" font-size="23" font-weight="800">
        belowmarketapartments.com
      </text>
    </g>

    <g transform="translate(878 398)">
      <circle cx="58" cy="58" r="58" fill="#f2b84b"/>
      <circle cx="58" cy="58" r="39" fill="#fff8e6"/>
      <path d="M34 58 L52 76 L88 37" fill="none" stroke="#173f3f" stroke-width="12" stroke-linecap="round" stroke-linejoin="round"/>
    </g>
  </g>
</svg>
